<svg version="1.1" xmlns="http://www.w3.org/2000/svg" width="220px" height="220px" viewBox="0 0 220 220" preserveAspectRatio="xMinYMin meet" xmlns:xlink="http://www.w3.org/1999/xlink" xmlns:svgjs="http://svgjs.com/svgjs"><rect width="100%" height="100%" fill="#ffffff" cx="0" cy="0"/><path d="M11,11l6,0 0,6 -6,0 0,-6z M17,11l6,0 0,6 -6,0 0,-6z M23,11l6,0 0,6 -6,0 0,-6z M29,11l6,0 0,6 -6,0 0,-6z M35,11l6,0 0,6 -6,0 0,-6z M41,11l6,0 0,6 -6,0 0,-6z M47,11l6,0 0,6 -6,0 0,-6z M59,11l6,0 0,6 -6,0 0,-6z M65,11l6,0 0,6 -6,0 0,-6z M71,11l6,0 0,6 -6,0 0,-6z M101,11l6,0 0,6 -6,0 0,-6z M113,11l6,0 0,6 -6,0 0,-6z M125,11l6,0 0,6 -6,0 0,-6z M143,11l6,0 0,6 -6,0 0,-6z M149,11l6,0 0,6 -6,0 0,-6z M167,11l6,0 0,6 -6,0 0,-6z M173,11l6,0 0,6 -6,0 0,-6z M179,11l6,0 0,6 -6,0 0,-6z M185,11l6,0 0,6 -6,0 0,-6z M191,11l6,0 0,6 -6,0 0,-6z M197,11l6,0 0,6 -6,0 0,-6z M203,11l6,0 0,6 -6,0 0,-6z M11,17l6,0 0,6 -6,0 0,-6z M47,17l6,0 0,6 -6,0 0,-6z M65,17l6,0 0,6 -6,0 0,-6z M77,17l6,0 0,6 -6,0 0,-6z M83,17l6,0 0,6 -6,0 0,-6z M107,17l6,0 0,6 -6,0 0,-6z M119,17l6,0 0,6 -6,0 0,-6z M131,17l6,0 0,6 -6,0 0,-6z M137,17l6,0 0,6 -6,0 0,-6z M149,17l6,0 0,6 -6,0 0,-6z M155,17l6,0 0,6 -6,0 0,-6z M167,17l6,0 0,6 -6,0 0,-6z M203,17l6,0 0,6 -6,0 0,-6z M11,23l6,0 0,6 -6,0 0,-6z M23,23l6,0 0,6 -6,0 0,-6z M29,23l6,0 0,6 -6,0 0,-6z M35,23l6,0 0,6 -6,0 0,-6z M47,23l6,0 0,6 -6,0 0,-6z M59,23l6,0 0,6 -6,0 0,-6z M71,23l6,0 0,6 -6,0 0,-6z M77,23l6,0 0,6 -6,0 0,-6z M89,23l6,0 0,6 -6,0 0,-6z M95,23l6,0 0,6 -6,0 0,-6z M101,23l6,0 0,6 -6,0 0,-6z M107,23l6,0 0,6 -6,0 0,-6z M119,23l6,0 0,6 -6,0 0,-6z M149,23l6,0 0,6 -6,0 0,-6z M167,23l6,0 0,6 -6,0 0,-6z M179,23l6,0 0,6 -6,0 0,-6z M185,23l6,0 0,6 -6,0 0,-6z M191,23l6,0 0,6 -6,0 0,-6z M203,23l6,0 0,6 -6,0 0,-6z M11,29l6,0 0,6 -6,0 0,-6z M23,29l6,0 0,6 -6,0 0,-6z M29,29l6,0 0,6 -6,0 0,-6z M35,29l6,0 0,6 -6,0 0,-6z M47,29l6,0 0,6 -6,0 0,-6z M59,29l6,0 0,6 -6,0 0,-6z M65,29l6,0 0,6 -6,0 0,-6z M95,29l6,0 0,6 -6,0 0,-6z M107,29l6,0 0,6 -6,0 0,-6z M113,29l6,0 0,6 -6,0 0,-6z M119,29l6,0 0,6 -6,0 0,-6z M125,29l6,0 0,6 -6,0 0,-6z M137,29l6,0 0,6 -6,0 0,-6z M143,29l6,0 0,6 -6,0 0,-6z M149,29l6,0 0,6 -6,0 0,-6z M167,29l6,0 0,6 -6,0 0,-6z M179,29l6,0 0,6 -6,0 0,-6z M185,29l6,0 0,6 -6,0 0,-6z M191,29l6,0 0,6 -6,0 0,-6z M203,29l6,0 0,6 -6,0 0,-6z M11,35l6,0 0,6 -6,0 0,-6z M23,35l6,0 0,6 -6,0 0,-6z M29,35l6,0 0,6 -6,0 0,-6z M35,35l6,0 0,6 -6,0 0,-6z M47,35l6,0 0,6 -6,0 0,-6z M71,35l6,0 0,6 -6,0 0,-6z M83,35l6,0 0,6 -6,0 0,-6z M89,35l6,0 0,6 -6,0 0,-6z M107,35l6,0 0,6 -6,0 0,-6z M119,35l6,0 0,6 -6,0 0,-6z M125,35l6,0 0,6 -6,0 0,-6z M131,35l6,0 0,6 -6,0 0,-6z M167,35l6,0 0,6 -6,0 0,-6z M179,35l6,0 0,6 -6,0 0,-6z M185,35l6,0 0,6 -6,0 0,-6z M191,35l6,0 0,6 -6,0 0,-6z M203,35l6,0 0,6 -6,0 0,-6z M11,41l6,0 0,6 -6,0 0,-6z M47,41l6,0 0,6 -6,0 0,-6z M59,41l6,0 0,6 -6,0 0,-6z M71,41l6,0 0,6 -6,0 0,-6z M77,41l6,0 0,6 -6,0 0,-6z M95,41l6,0 0,6 -6,0 0,-6z M107,41l6,0 0,6 -6,0 0,-6z M125,41l6,0 0,6 -6,0 0,-6z M131,41l6,0 0,6 -6,0 0,-6z M155,41l6,0 0,6 -6,0 0,-6z M167,41l6,0 0,6 -6,0 0,-6z M203,41l6,0 0,6 -6,0 0,-6z M11,47l6,0 0,6 -6,0 0,-6z M17,47l6,0 0,6 -6,0 0,-6z M23,47l6,0 0,6 -6,0 0,-6z M29,47l6,0 0,6 -6,0 0,-6z M35,47l6,0 0,6 -6,0 0,-6z M41,47l6,0 0,6 -6,0 0,-6z M47,47l6,0 0,6 -6,0 0,-6z M59,47l6,0 0,6 -6,0 0,-6z M71,47l6,0 0,6 -6,0 0,-6z M83,47l6,0 0,6 -6,0 0,-6z M95,47l6,0 0,6 -6,0 0,-6z M107,47l6,0 0,6 -6,0 0,-6z M119,47l6,0 0,6 -6,0 0,-6z M131,47l6,0 0,6 -6,0 0,-6z M143,47l6,0 0,6 -6,0 0,-6z M155,47l6,0 0,6 -6,0 0,-6z M167,47l6,0 0,6 -6,0 0,-6z M173,47l6,0 0,6 -6,0 0,-6z M179,47l6,0 0,6 -6,0 0,-6z M185,47l6,0 0,6 -6,0 0,-6z M191,47l6,0 0,6 -6,0 0,-6z M197,47l6,0 0,6 -6,0 0,-6z M203,47l6,0 0,6 -6,0 0,-6z M59,53l6,0 0,6 -6,0 0,-6z M65,53l6,0 0,6 -6,0 0,-6z M71,53l6,0 0,6 -6,0 0,-6z M77,53l6,0 0,6 -6,0 0,-6z M89,53l6,0 0,6 -6,0 0,-6z M101,53l6,0 0,6 -6,0 0,-6z M113,53l6,0 0,6 -6,0 0,-6z M137,53l6,0 0,6 -6,0 0,-6z M143,53l6,0 0,6 -6,0 0,-6z M149,53l6,0 0,6 -6,0 0,-6z M155,53l6,0 0,6 -6,0 0,-6z M17,59l6,0 0,6 -6,0 0,-6z M29,59l6,0 0,6 -6,0 0,-6z M41,59l6,0 0,6 -6,0 0,-6z M47,59l6,0 0,6 -6,0 0,-6z M53,59l6,0 0,6 -6,0 0,-6z M59,59l6,0 0,6 -6,0 0,-6z M71,59l6,0 0,6 -6,0 0,-6z M77,59l6,0 0,6 -6,0 0,-6z M101,59l6,0 0,6 -6,0 0,-6z M107,59l6,0 0,6 -6,0 0,-6z M137,59l6,0 0,6 -6,0 0,-6z M143,59l6,0 0,6 -6,0 0,-6z M161,59l6,0 0,6 -6,0 0,-6z M167,59l6,0 0,6 -6,0 0,-6z M173,59l6,0 0,6 -6,0 0,-6z M185,59l6,0 0,6 -6,0 0,-6z M191,59l6,0 0,6 -6,0 0,-6z M203,59l6,0 0,6 -6,0 0,-6z M11,65l6,0 0,6 -6,0 0,-6z M17,65l6,0 0,6 -6,0 0,-6z M35,65l6,0 0,6 -6,0 0,-6z M65,65l6,0 0,6 -6,0 0,-6z M71,65l6,0 0,6 -6,0 0,-6z M83,65l6,0 0,6 -6,0 0,-6z M107,65l6,0 0,6 -6,0 0,-6z M113,65l6,0 0,6 -6,0 0,-6z M131,65l6,0 0,6 -6,0 0,-6z M155,65l6,0 0,6 -6,0 0,-6z M161,65l6,0 0,6 -6,0 0,-6z M167,65l6,0 0,6 -6,0 0,-6z M173,65l6,0 0,6 -6,0 0,-6z M197,65l6,0 0,6 -6,0 0,-6z M203,65l6,0 0,6 -6,0 0,-6z M17,71l6,0 0,6 -6,0 0,-6z M35,71l6,0 0,6 -6,0 0,-6z M47,71l6,0 0,6 -6,0 0,-6z M53,71l6,0 0,6 -6,0 0,-6z M89,71l6,0 0,6 -6,0 0,-6z M107,71l6,0 0,6 -6,0 0,-6z M119,71l6,0 0,6 -6,0 0,-6z M125,71l6,0 0,6 -6,0 0,-6z M143,71l6,0 0,6 -6,0 0,-6z M155,71l6,0 0,6 -6,0 0,-6z M161,71l6,0 0,6 -6,0 0,-6z M167,71l6,0 0,6 -6,0 0,-6z M173,71l6,0 0,6 -6,0 0,-6z M179,71l6,0 0,6 -6,0 0,-6z M191,71l6,0 0,6 -6,0 0,-6z M203,71l6,0 0,6 -6,0 0,-6z M35,77l6,0 0,6 -6,0 0,-6z M41,77l6,0 0,6 -6,0 0,-6z M53,77l6,0 0,6 -6,0 0,-6z M59,77l6,0 0,6 -6,0 0,-6z M65,77l6,0 0,6 -6,0 0,-6z M71,77l6,0 0,6 -6,0 0,-6z M77,77l6,0 0,6 -6,0 0,-6z M95,77l6,0 0,6 -6,0 0,-6z M101,77l6,0 0,6 -6,0 0,-6z M107,77l6,0 0,6 -6,0 0,-6z M119,77l6,0 0,6 -6,0 0,-6z M131,77l6,0 0,6 -6,0 0,-6z M137,77l6,0 0,6 -6,0 0,-6z M179,77l6,0 0,6 -6,0 0,-6z M185,77l6,0 0,6 -6,0 0,-6z M197,77l6,0 0,6 -6,0 0,-6z M203,77l6,0 0,6 -6,0 0,-6z M17,83l6,0 0,6 -6,0 0,-6z M23,83l6,0 0,6 -6,0 0,-6z M29,83l6,0 0,6 -6,0 0,-6z M35,83l6,0 0,6 -6,0 0,-6z M41,83l6,0 0,6 -6,0 0,-6z M47,83l6,0 0,6 -6,0 0,-6z M65,83l6,0 0,6 -6,0 0,-6z M71,83l6,0 0,6 -6,0 0,-6z M83,83l6,0 0,6 -6,0 0,-6z M89,83l6,0 0,6 -6,0 0,-6z M119,83l6,0 0,6 -6,0 0,-6z M149,83l6,0 0,6 -6,0 0,-6z M155,83l6,0 0,6 -6,0 0,-6z M161,83l6,0 0,6 -6,0 0,-6z M167,83l6,0 0,6 -6,0 0,-6z M179,83l6,0 0,6 -6,0 0,-6z M185,83l6,0 0,6 -6,0 0,-6z M197,83l6,0 0,6 -6,0 0,-6z M11,89l6,0 0,6 -6,0 0,-6z M17,89l6,0 0,6 -6,0 0,-6z M41,89l6,0 0,6 -6,0 0,-6z M59,89l6,0 0,6 -6,0 0,-6z M65,89l6,0 0,6 -6,0 0,-6z M77,89l6,0 0,6 -6,0 0,-6z M113,89l6,0 0,6 -6,0 0,-6z M119,89l6,0 0,6 -6,0 0,-6z M125,89l6,0 0,6 -6,0 0,-6z M131,89l6,0 0,6 -6,0 0,-6z M143,89l6,0 0,6 -6,0 0,-6z M179,89l6,0 0,6 -6,0 0,-6z M197,89l6,0 0,6 -6,0 0,-6z M203,89l6,0 0,6 -6,0 0,-6z M17,95l6,0 0,6 -6,0 0,-6z M23,95l6,0 0,6 -6,0 0,-6z M29,95l6,0 0,6 -6,0 0,-6z M41,95l6,0 0,6 -6,0 0,-6z M47,95l6,0 0,6 -6,0 0,-6z M89,95l6,0 0,6 -6,0 0,-6z M113,95l6,0 0,6 -6,0 0,-6z M131,95l6,0 0,6 -6,0 0,-6z M137,95l6,0 0,6 -6,0 0,-6z M149,95l6,0 0,6 -6,0 0,-6z M161,95l6,0 0,6 -6,0 0,-6z M167,95l6,0 0,6 -6,0 0,-6z M173,95l6,0 0,6 -6,0 0,-6z M191,95l6,0 0,6 -6,0 0,-6z M197,95l6,0 0,6 -6,0 0,-6z M11,101l6,0 0,6 -6,0 0,-6z M29,101l6,0 0,6 -6,0 0,-6z M35,101l6,0 0,6 -6,0 0,-6z M53,101l6,0 0,6 -6,0 0,-6z M83,101l6,0 0,6 -6,0 0,-6z M101,101l6,0 0,6 -6,0 0,-6z M125,101l6,0 0,6 -6,0 0,-6z M131,101l6,0 0,6 -6,0 0,-6z M137,101l6,0 0,6 -6,0 0,-6z M149,101l6,0 0,6 -6,0 0,-6z M167,101l6,0 0,6 -6,0 0,-6z M179,101l6,0 0,6 -6,0 0,-6z M197,101l6,0 0,6 -6,0 0,-6z M11,107l6,0 0,6 -6,0 0,-6z M23,107l6,0 0,6 -6,0 0,-6z M47,107l6,0 0,6 -6,0 0,-6z M53,107l6,0 0,6 -6,0 0,-6z M59,107l6,0 0,6 -6,0 0,-6z M77,107l6,0 0,6 -6,0 0,-6z M83,107l6,0 0,6 -6,0 0,-6z M89,107l6,0 0,6 -6,0 0,-6z M95,107l6,0 0,6 -6,0 0,-6z M113,107l6,0 0,6 -6,0 0,-6z M119,107l6,0 0,6 -6,0 0,-6z M131,107l6,0 0,6 -6,0 0,-6z M137,107l6,0 0,6 -6,0 0,-6z M143,107l6,0 0,6 -6,0 0,-6z M149,107l6,0 0,6 -6,0 0,-6z M155,107l6,0 0,6 -6,0 0,-6z M167,107l6,0 0,6 -6,0 0,-6z M179,107l6,0 0,6 -6,0 0,-6z M185,107l6,0 0,6 -6,0 0,-6z M197,107l6,0 0,6 -6,0 0,-6z M23,113l6,0 0,6 -6,0 0,-6z M53,113l6,0 0,6 -6,0 0,-6z M65,113l6,0 0,6 -6,0 0,-6z M71,113l6,0 0,6 -6,0 0,-6z M77,113l6,0 0,6 -6,0 0,-6z M89,113l6,0 0,6 -6,0 0,-6z M101,113l6,0 0,6 -6,0 0,-6z M107,113l6,0 0,6 -6,0 0,-6z M119,113l6,0 0,6 -6,0 0,-6z M137,113l6,0 0,6 -6,0 0,-6z M149,113l6,0 0,6 -6,0 0,-6z M155,113l6,0 0,6 -6,0 0,-6z M161,113l6,0 0,6 -6,0 0,-6z M173,113l6,0 0,6 -6,0 0,-6z M185,113l6,0 0,6 -6,0 0,-6z M197,113l6,0 0,6 -6,0 0,-6z M11,119l6,0 0,6 -6,0 0,-6z M41,119l6,0 0,6 -6,0 0,-6z M47,119l6,0 0,6 -6,0 0,-6z M77,119l6,0 0,6 -6,0 0,-6z M83,119l6,0 0,6 -6,0 0,-6z M89,119l6,0 0,6 -6,0 0,-6z M95,119l6,0 0,6 -6,0 0,-6z M113,119l6,0 0,6 -6,0 0,-6z M119,119l6,0 0,6 -6,0 0,-6z M137,119l6,0 0,6 -6,0 0,-6z M155,119l6,0 0,6 -6,0 0,-6z M191,119l6,0 0,6 -6,0 0,-6z M197,119l6,0 0,6 -6,0 0,-6z M203,119l6,0 0,6 -6,0 0,-6z M17,125l6,0 0,6 -6,0 0,-6z M29,125l6,0 0,6 -6,0 0,-6z M35,125l6,0 0,6 -6,0 0,-6z M41,125l6,0 0,6 -6,0 0,-6z M59,125l6,0 0,6 -6,0 0,-6z M65,125l6,0 0,6 -6,0 0,-6z M77,125l6,0 0,6 -6,0 0,-6z M95,125l6,0 0,6 -6,0 0,-6z M101,125l6,0 0,6 -6,0 0,-6z M107,125l6,0 0,6 -6,0 0,-6z M119,125l6,0 0,6 -6,0 0,-6z M125,125l6,0 0,6 -6,0 0,-6z M131,125l6,0 0,6 -6,0 0,-6z M137,125l6,0 0,6 -6,0 0,-6z M143,125l6,0 0,6 -6,0 0,-6z M149,125l6,0 0,6 -6,0 0,-6z M155,125l6,0 0,6 -6,0 0,-6z M173,125l6,0 0,6 -6,0 0,-6z M203,125l6,0 0,6 -6,0 0,-6z M11,131l6,0 0,6 -6,0 0,-6z M47,131l6,0 0,6 -6,0 0,-6z M53,131l6,0 0,6 -6,0 0,-6z M65,131l6,0 0,6 -6,0 0,-6z M71,131l6,0 0,6 -6,0 0,-6z M107,131l6,0 0,6 -6,0 0,-6z M119,131l6,0 0,6 -6,0 0,-6z M125,131l6,0 0,6 -6,0 0,-6z M137,131l6,0 0,6 -6,0 0,-6z M143,131l6,0 0,6 -6,0 0,-6z M149,131l6,0 0,6 -6,0 0,-6z M155,131l6,0 0,6 -6,0 0,-6z M161,131l6,0 0,6 -6,0 0,-6z M29,137l6,0 0,6 -6,0 0,-6z M35,137l6,0 0,6 -6,0 0,-6z M53,137l6,0 0,6 -6,0 0,-6z M65,137l6,0 0,6 -6,0 0,-6z M89,137l6,0 0,6 -6,0 0,-6z M95,137l6,0 0,6 -6,0 0,-6z M101,137l6,0 0,6 -6,0 0,-6z M107,137l6,0 0,6 -6,0 0,-6z M113,137l6,0 0,6 -6,0 0,-6z M131,137l6,0 0,6 -6,0 0,-6z M137,137l6,0 0,6 -6,0 0,-6z M149,137l6,0 0,6 -6,0 0,-6z M155,137l6,0 0,6 -6,0 0,-6z M161,137l6,0 0,6 -6,0 0,-6z M173,137l6,0 0,6 -6,0 0,-6z M197,137l6,0 0,6 -6,0 0,-6z M203,137l6,0 0,6 -6,0 0,-6z M11,143l6,0 0,6 -6,0 0,-6z M17,143l6,0 0,6 -6,0 0,-6z M23,143l6,0 0,6 -6,0 0,-6z M35,143l6,0 0,6 -6,0 0,-6z M47,143l6,0 0,6 -6,0 0,-6z M53,143l6,0 0,6 -6,0 0,-6z M59,143l6,0 0,6 -6,0 0,-6z M65,143l6,0 0,6 -6,0 0,-6z M83,143l6,0 0,6 -6,0 0,-6z M101,143l6,0 0,6 -6,0 0,-6z M107,143l6,0 0,6 -6,0 0,-6z M113,143l6,0 0,6 -6,0 0,-6z M125,143l6,0 0,6 -6,0 0,-6z M137,143l6,0 0,6 -6,0 0,-6z M155,143l6,0 0,6 -6,0 0,-6z M167,143l6,0 0,6 -6,0 0,-6z M173,143l6,0 0,6 -6,0 0,-6z M179,143l6,0 0,6 -6,0 0,-6z M203,143l6,0 0,6 -6,0 0,-6z M17,149l6,0 0,6 -6,0 0,-6z M41,149l6,0 0,6 -6,0 0,-6z M53,149l6,0 0,6 -6,0 0,-6z M59,149l6,0 0,6 -6,0 0,-6z M71,149l6,0 0,6 -6,0 0,-6z M89,149l6,0 0,6 -6,0 0,-6z M101,149l6,0 0,6 -6,0 0,-6z M107,149l6,0 0,6 -6,0 0,-6z M113,149l6,0 0,6 -6,0 0,-6z M119,149l6,0 0,6 -6,0 0,-6z M137,149l6,0 0,6 -6,0 0,-6z M143,149l6,0 0,6 -6,0 0,-6z M149,149l6,0 0,6 -6,0 0,-6z M173,149l6,0 0,6 -6,0 0,-6z M185,149l6,0 0,6 -6,0 0,-6z M197,149l6,0 0,6 -6,0 0,-6z M203,149l6,0 0,6 -6,0 0,-6z M11,155l6,0 0,6 -6,0 0,-6z M23,155l6,0 0,6 -6,0 0,-6z M47,155l6,0 0,6 -6,0 0,-6z M53,155l6,0 0,6 -6,0 0,-6z M59,155l6,0 0,6 -6,0 0,-6z M65,155l6,0 0,6 -6,0 0,-6z M71,155l6,0 0,6 -6,0 0,-6z M83,155l6,0 0,6 -6,0 0,-6z M95,155l6,0 0,6 -6,0 0,-6z M101,155l6,0 0,6 -6,0 0,-6z M113,155l6,0 0,6 -6,0 0,-6z M119,155l6,0 0,6 -6,0 0,-6z M125,155l6,0 0,6 -6,0 0,-6z M131,155l6,0 0,6 -6,0 0,-6z M137,155l6,0 0,6 -6,0 0,-6z M155,155l6,0 0,6 -6,0 0,-6z M161,155l6,0 0,6 -6,0 0,-6z M167,155l6,0 0,6 -6,0 0,-6z M173,155l6,0 0,6 -6,0 0,-6z M179,155l6,0 0,6 -6,0 0,-6z M197,155l6,0 0,6 -6,0 0,-6z M59,161l6,0 0,6 -6,0 0,-6z M65,161l6,0 0,6 -6,0 0,-6z M83,161l6,0 0,6 -6,0 0,-6z M101,161l6,0 0,6 -6,0 0,-6z M113,161l6,0 0,6 -6,0 0,-6z M125,161l6,0 0,6 -6,0 0,-6z M143,161l6,0 0,6 -6,0 0,-6z M155,161l6,0 0,6 -6,0 0,-6z M179,161l6,0 0,6 -6,0 0,-6z M185,161l6,0 0,6 -6,0 0,-6z M203,161l6,0 0,6 -6,0 0,-6z M11,167l6,0 0,6 -6,0 0,-6z M17,167l6,0 0,6 -6,0 0,-6z M23,167l6,0 0,6 -6,0 0,-6z M29,167l6,0 0,6 -6,0 0,-6z M35,167l6,0 0,6 -6,0 0,-6z M41,167l6,0 0,6 -6,0 0,-6z M47,167l6,0 0,6 -6,0 0,-6z M59,167l6,0 0,6 -6,0 0,-6z M83,167l6,0 0,6 -6,0 0,-6z M95,167l6,0 0,6 -6,0 0,-6z M119,167l6,0 0,6 -6,0 0,-6z M131,167l6,0 0,6 -6,0 0,-6z M155,167l6,0 0,6 -6,0 0,-6z M167,167l6,0 0,6 -6,0 0,-6z M179,167l6,0 0,6 -6,0 0,-6z M185,167l6,0 0,6 -6,0 0,-6z M191,167l6,0 0,6 -6,0 0,-6z M197,167l6,0 0,6 -6,0 0,-6z M11,173l6,0 0,6 -6,0 0,-6z M47,173l6,0 0,6 -6,0 0,-6z M59,173l6,0 0,6 -6,0 0,-6z M77,173l6,0 0,6 -6,0 0,-6z M83,173l6,0 0,6 -6,0 0,-6z M89,173l6,0 0,6 -6,0 0,-6z M101,173l6,0 0,6 -6,0 0,-6z M107,173l6,0 0,6 -6,0 0,-6z M125,173l6,0 0,6 -6,0 0,-6z M131,173l6,0 0,6 -6,0 0,-6z M137,173l6,0 0,6 -6,0 0,-6z M143,173l6,0 0,6 -6,0 0,-6z M155,173l6,0 0,6 -6,0 0,-6z M179,173l6,0 0,6 -6,0 0,-6z M11,179l6,0 0,6 -6,0 0,-6z M23,179l6,0 0,6 -6,0 0,-6z M29,179l6,0 0,6 -6,0 0,-6z M35,179l6,0 0,6 -6,0 0,-6z M47,179l6,0 0,6 -6,0 0,-6z M83,179l6,0 0,6 -6,0 0,-6z M95,179l6,0 0,6 -6,0 0,-6z M101,179l6,0 0,6 -6,0 0,-6z M107,179l6,0 0,6 -6,0 0,-6z M113,179l6,0 0,6 -6,0 0,-6z M131,179l6,0 0,6 -6,0 0,-6z M137,179l6,0 0,6 -6,0 0,-6z M143,179l6,0 0,6 -6,0 0,-6z M155,179l6,0 0,6 -6,0 0,-6z M161,179l6,0 0,6 -6,0 0,-6z M167,179l6,0 0,6 -6,0 0,-6z M173,179l6,0 0,6 -6,0 0,-6z M179,179l6,0 0,6 -6,0 0,-6z M185,179l6,0 0,6 -6,0 0,-6z M197,179l6,0 0,6 -6,0 0,-6z M203,179l6,0 0,6 -6,0 0,-6z M11,185l6,0 0,6 -6,0 0,-6z M23,185l6,0 0,6 -6,0 0,-6z M29,185l6,0 0,6 -6,0 0,-6z M35,185l6,0 0,6 -6,0 0,-6z M47,185l6,0 0,6 -6,0 0,-6z M59,185l6,0 0,6 -6,0 0,-6z M71,185l6,0 0,6 -6,0 0,-6z M83,185l6,0 0,6 -6,0 0,-6z M101,185l6,0 0,6 -6,0 0,-6z M107,185l6,0 0,6 -6,0 0,-6z M113,185l6,0 0,6 -6,0 0,-6z M149,185l6,0 0,6 -6,0 0,-6z M167,185l6,0 0,6 -6,0 0,-6z M179,185l6,0 0,6 -6,0 0,-6z M185,185l6,0 0,6 -6,0 0,-6z M191,185l6,0 0,6 -6,0 0,-6z M197,185l6,0 0,6 -6,0 0,-6z M11,191l6,0 0,6 -6,0 0,-6z M23,191l6,0 0,6 -6,0 0,-6z M29,191l6,0 0,6 -6,0 0,-6z M35,191l6,0 0,6 -6,0 0,-6z M47,191l6,0 0,6 -6,0 0,-6z M65,191l6,0 0,6 -6,0 0,-6z M71,191l6,0 0,6 -6,0 0,-6z M89,191l6,0 0,6 -6,0 0,-6z M95,191l6,0 0,6 -6,0 0,-6z M113,191l6,0 0,6 -6,0 0,-6z M137,191l6,0 0,6 -6,0 0,-6z M179,191l6,0 0,6 -6,0 0,-6z M185,191l6,0 0,6 -6,0 0,-6z M191,191l6,0 0,6 -6,0 0,-6z M203,191l6,0 0,6 -6,0 0,-6z M11,197l6,0 0,6 -6,0 0,-6z M47,197l6,0 0,6 -6,0 0,-6z M59,197l6,0 0,6 -6,0 0,-6z M71,197l6,0 0,6 -6,0 0,-6z M89,197l6,0 0,6 -6,0 0,-6z M95,197l6,0 0,6 -6,0 0,-6z M107,197l6,0 0,6 -6,0 0,-6z M125,197l6,0 0,6 -6,0 0,-6z M137,197l6,0 0,6 -6,0 0,-6z M161,197l6,0 0,6 -6,0 0,-6z M11,203l6,0 0,6 -6,0 0,-6z M17,203l6,0 0,6 -6,0 0,-6z M23,203l6,0 0,6 -6,0 0,-6z M29,203l6,0 0,6 -6,0 0,-6z M35,203l6,0 0,6 -6,0 0,-6z M41,203l6,0 0,6 -6,0 0,-6z M47,203l6,0 0,6 -6,0 0,-6z M71,203l6,0 0,6 -6,0 0,-6z M89,203l6,0 0,6 -6,0 0,-6z M95,203l6,0 0,6 -6,0 0,-6z M119,203l6,0 0,6 -6,0 0,-6z M137,203l6,0 0,6 -6,0 0,-6z M155,203l6,0 0,6 -6,0 0,-6z M161,203l6,0 0,6 -6,0 0,-6z M179,203l6,0 0,6 -6,0 0,-6z M197,203l6,0 0,6 -6,0 0,-6z " stroke="transparent" fill="#0c0c0d"/></svg>