<svg version="1.1" xmlns="http://www.w3.org/2000/svg" width="220px" height="220px" viewBox="0 0 220 220" preserveAspectRatio="xMinYMin meet" xmlns:xlink="http://www.w3.org/1999/xlink" xmlns:svgjs="http://svgjs.com/svgjs"><rect width="100%" height="100%" fill="#ffffff" cx="0" cy="0"/><path d="M8,8l7,0 0,7 -7,0 0,-7z M15,8l7,0 0,7 -7,0 0,-7z M22,8l7,0 0,7 -7,0 0,-7z M29,8l7,0 0,7 -7,0 0,-7z M36,8l7,0 0,7 -7,0 0,-7z M43,8l7,0 0,7 -7,0 0,-7z M50,8l7,0 0,7 -7,0 0,-7z M64,8l7,0 0,7 -7,0 0,-7z M71,8l7,0 0,7 -7,0 0,-7z M78,8l7,0 0,7 -7,0 0,-7z M92,8l7,0 0,7 -7,0 0,-7z M113,8l7,0 0,7 -7,0 0,-7z M127,8l7,0 0,7 -7,0 0,-7z M134,8l7,0 0,7 -7,0 0,-7z M162,8l7,0 0,7 -7,0 0,-7z M169,8l7,0 0,7 -7,0 0,-7z M176,8l7,0 0,7 -7,0 0,-7z M183,8l7,0 0,7 -7,0 0,-7z M190,8l7,0 0,7 -7,0 0,-7z M197,8l7,0 0,7 -7,0 0,-7z M204,8l7,0 0,7 -7,0 0,-7z M8,15l7,0 0,7 -7,0 0,-7z M50,15l7,0 0,7 -7,0 0,-7z M64,15l7,0 0,7 -7,0 0,-7z M71,15l7,0 0,7 -7,0 0,-7z M92,15l7,0 0,7 -7,0 0,-7z M99,15l7,0 0,7 -7,0 0,-7z M106,15l7,0 0,7 -7,0 0,-7z M113,15l7,0 0,7 -7,0 0,-7z M120,15l7,0 0,7 -7,0 0,-7z M134,15l7,0 0,7 -7,0 0,-7z M148,15l7,0 0,7 -7,0 0,-7z M162,15l7,0 0,7 -7,0 0,-7z M204,15l7,0 0,7 -7,0 0,-7z M8,22l7,0 0,7 -7,0 0,-7z M22,22l7,0 0,7 -7,0 0,-7z M29,22l7,0 0,7 -7,0 0,-7z M36,22l7,0 0,7 -7,0 0,-7z M50,22l7,0 0,7 -7,0 0,-7z M78,22l7,0 0,7 -7,0 0,-7z M85,22l7,0 0,7 -7,0 0,-7z M99,22l7,0 0,7 -7,0 0,-7z M134,22l7,0 0,7 -7,0 0,-7z M162,22l7,0 0,7 -7,0 0,-7z M176,22l7,0 0,7 -7,0 0,-7z M183,22l7,0 0,7 -7,0 0,-7z M190,22l7,0 0,7 -7,0 0,-7z M204,22l7,0 0,7 -7,0 0,-7z M8,29l7,0 0,7 -7,0 0,-7z M22,29l7,0 0,7 -7,0 0,-7z M29,29l7,0 0,7 -7,0 0,-7z M36,29l7,0 0,7 -7,0 0,-7z M50,29l7,0 0,7 -7,0 0,-7z M92,29l7,0 0,7 -7,0 0,-7z M99,29l7,0 0,7 -7,0 0,-7z M106,29l7,0 0,7 -7,0 0,-7z M120,29l7,0 0,7 -7,0 0,-7z M127,29l7,0 0,7 -7,0 0,-7z M141,29l7,0 0,7 -7,0 0,-7z M162,29l7,0 0,7 -7,0 0,-7z M176,29l7,0 0,7 -7,0 0,-7z M183,29l7,0 0,7 -7,0 0,-7z M190,29l7,0 0,7 -7,0 0,-7z M204,29l7,0 0,7 -7,0 0,-7z M8,36l7,0 0,7 -7,0 0,-7z M22,36l7,0 0,7 -7,0 0,-7z M29,36l7,0 0,7 -7,0 0,-7z M36,36l7,0 0,7 -7,0 0,-7z M50,36l7,0 0,7 -7,0 0,-7z M99,36l7,0 0,7 -7,0 0,-7z M127,36l7,0 0,7 -7,0 0,-7z M134,36l7,0 0,7 -7,0 0,-7z M141,36l7,0 0,7 -7,0 0,-7z M148,36l7,0 0,7 -7,0 0,-7z M162,36l7,0 0,7 -7,0 0,-7z M176,36l7,0 0,7 -7,0 0,-7z M183,36l7,0 0,7 -7,0 0,-7z M190,36l7,0 0,7 -7,0 0,-7z M204,36l7,0 0,7 -7,0 0,-7z M8,43l7,0 0,7 -7,0 0,-7z M50,43l7,0 0,7 -7,0 0,-7z M78,43l7,0 0,7 -7,0 0,-7z M85,43l7,0 0,7 -7,0 0,-7z M99,43l7,0 0,7 -7,0 0,-7z M106,43l7,0 0,7 -7,0 0,-7z M127,43l7,0 0,7 -7,0 0,-7z M148,43l7,0 0,7 -7,0 0,-7z M162,43l7,0 0,7 -7,0 0,-7z M204,43l7,0 0,7 -7,0 0,-7z M8,50l7,0 0,7 -7,0 0,-7z M15,50l7,0 0,7 -7,0 0,-7z M22,50l7,0 0,7 -7,0 0,-7z M29,50l7,0 0,7 -7,0 0,-7z M36,50l7,0 0,7 -7,0 0,-7z M43,50l7,0 0,7 -7,0 0,-7z M50,50l7,0 0,7 -7,0 0,-7z M64,50l7,0 0,7 -7,0 0,-7z M78,50l7,0 0,7 -7,0 0,-7z M92,50l7,0 0,7 -7,0 0,-7z M106,50l7,0 0,7 -7,0 0,-7z M120,50l7,0 0,7 -7,0 0,-7z M134,50l7,0 0,7 -7,0 0,-7z M148,50l7,0 0,7 -7,0 0,-7z M162,50l7,0 0,7 -7,0 0,-7z M169,50l7,0 0,7 -7,0 0,-7z M176,50l7,0 0,7 -7,0 0,-7z M183,50l7,0 0,7 -7,0 0,-7z M190,50l7,0 0,7 -7,0 0,-7z M197,50l7,0 0,7 -7,0 0,-7z M204,50l7,0 0,7 -7,0 0,-7z M71,57l7,0 0,7 -7,0 0,-7z M78,57l7,0 0,7 -7,0 0,-7z M106,57l7,0 0,7 -7,0 0,-7z M15,64l7,0 0,7 -7,0 0,-7z M50,64l7,0 0,7 -7,0 0,-7z M57,64l7,0 0,7 -7,0 0,-7z M64,64l7,0 0,7 -7,0 0,-7z M85,64l7,0 0,7 -7,0 0,-7z M120,64l7,0 0,7 -7,0 0,-7z M127,64l7,0 0,7 -7,0 0,-7z M134,64l7,0 0,7 -7,0 0,-7z M155,64l7,0 0,7 -7,0 0,-7z M197,64l7,0 0,7 -7,0 0,-7z M204,64l7,0 0,7 -7,0 0,-7z M8,71l7,0 0,7 -7,0 0,-7z M36,71l7,0 0,7 -7,0 0,-7z M43,71l7,0 0,7 -7,0 0,-7z M57,71l7,0 0,7 -7,0 0,-7z M99,71l7,0 0,7 -7,0 0,-7z M106,71l7,0 0,7 -7,0 0,-7z M120,71l7,0 0,7 -7,0 0,-7z M134,71l7,0 0,7 -7,0 0,-7z M141,71l7,0 0,7 -7,0 0,-7z M169,71l7,0 0,7 -7,0 0,-7z M176,71l7,0 0,7 -7,0 0,-7z M190,71l7,0 0,7 -7,0 0,-7z M197,71l7,0 0,7 -7,0 0,-7z M8,78l7,0 0,7 -7,0 0,-7z M15,78l7,0 0,7 -7,0 0,-7z M50,78l7,0 0,7 -7,0 0,-7z M57,78l7,0 0,7 -7,0 0,-7z M64,78l7,0 0,7 -7,0 0,-7z M78,78l7,0 0,7 -7,0 0,-7z M113,78l7,0 0,7 -7,0 0,-7z M134,78l7,0 0,7 -7,0 0,-7z M155,78l7,0 0,7 -7,0 0,-7z M162,78l7,0 0,7 -7,0 0,-7z M176,78l7,0 0,7 -7,0 0,-7z M183,78l7,0 0,7 -7,0 0,-7z M190,78l7,0 0,7 -7,0 0,-7z M8,85l7,0 0,7 -7,0 0,-7z M22,85l7,0 0,7 -7,0 0,-7z M36,85l7,0 0,7 -7,0 0,-7z M71,85l7,0 0,7 -7,0 0,-7z M78,85l7,0 0,7 -7,0 0,-7z M85,85l7,0 0,7 -7,0 0,-7z M92,85l7,0 0,7 -7,0 0,-7z M120,85l7,0 0,7 -7,0 0,-7z M141,85l7,0 0,7 -7,0 0,-7z M148,85l7,0 0,7 -7,0 0,-7z M162,85l7,0 0,7 -7,0 0,-7z M169,85l7,0 0,7 -7,0 0,-7z M176,85l7,0 0,7 -7,0 0,-7z M8,92l7,0 0,7 -7,0 0,-7z M22,92l7,0 0,7 -7,0 0,-7z M29,92l7,0 0,7 -7,0 0,-7z M43,92l7,0 0,7 -7,0 0,-7z M50,92l7,0 0,7 -7,0 0,-7z M92,92l7,0 0,7 -7,0 0,-7z M113,92l7,0 0,7 -7,0 0,-7z M148,92l7,0 0,7 -7,0 0,-7z M155,92l7,0 0,7 -7,0 0,-7z M162,92l7,0 0,7 -7,0 0,-7z M183,92l7,0 0,7 -7,0 0,-7z M197,92l7,0 0,7 -7,0 0,-7z M8,99l7,0 0,7 -7,0 0,-7z M15,99l7,0 0,7 -7,0 0,-7z M43,99l7,0 0,7 -7,0 0,-7z M71,99l7,0 0,7 -7,0 0,-7z M113,99l7,0 0,7 -7,0 0,-7z M120,99l7,0 0,7 -7,0 0,-7z M127,99l7,0 0,7 -7,0 0,-7z M134,99l7,0 0,7 -7,0 0,-7z M141,99l7,0 0,7 -7,0 0,-7z M148,99l7,0 0,7 -7,0 0,-7z M162,99l7,0 0,7 -7,0 0,-7z M176,99l7,0 0,7 -7,0 0,-7z M183,99l7,0 0,7 -7,0 0,-7z M197,99l7,0 0,7 -7,0 0,-7z M204,99l7,0 0,7 -7,0 0,-7z M22,106l7,0 0,7 -7,0 0,-7z M29,106l7,0 0,7 -7,0 0,-7z M36,106l7,0 0,7 -7,0 0,-7z M50,106l7,0 0,7 -7,0 0,-7z M57,106l7,0 0,7 -7,0 0,-7z M71,106l7,0 0,7 -7,0 0,-7z M78,106l7,0 0,7 -7,0 0,-7z M92,106l7,0 0,7 -7,0 0,-7z M120,106l7,0 0,7 -7,0 0,-7z M127,106l7,0 0,7 -7,0 0,-7z M148,106l7,0 0,7 -7,0 0,-7z M155,106l7,0 0,7 -7,0 0,-7z M162,106l7,0 0,7 -7,0 0,-7z M169,106l7,0 0,7 -7,0 0,-7z M8,113l7,0 0,7 -7,0 0,-7z M15,113l7,0 0,7 -7,0 0,-7z M36,113l7,0 0,7 -7,0 0,-7z M43,113l7,0 0,7 -7,0 0,-7z M57,113l7,0 0,7 -7,0 0,-7z M92,113l7,0 0,7 -7,0 0,-7z M99,113l7,0 0,7 -7,0 0,-7z M141,113l7,0 0,7 -7,0 0,-7z M148,113l7,0 0,7 -7,0 0,-7z M162,113l7,0 0,7 -7,0 0,-7z M176,113l7,0 0,7 -7,0 0,-7z M183,113l7,0 0,7 -7,0 0,-7z M190,113l7,0 0,7 -7,0 0,-7z M197,113l7,0 0,7 -7,0 0,-7z M204,113l7,0 0,7 -7,0 0,-7z M15,120l7,0 0,7 -7,0 0,-7z M29,120l7,0 0,7 -7,0 0,-7z M36,120l7,0 0,7 -7,0 0,-7z M50,120l7,0 0,7 -7,0 0,-7z M57,120l7,0 0,7 -7,0 0,-7z M78,120l7,0 0,7 -7,0 0,-7z M85,120l7,0 0,7 -7,0 0,-7z M99,120l7,0 0,7 -7,0 0,-7z M106,120l7,0 0,7 -7,0 0,-7z M113,120l7,0 0,7 -7,0 0,-7z M134,120l7,0 0,7 -7,0 0,-7z M169,120l7,0 0,7 -7,0 0,-7z M183,120l7,0 0,7 -7,0 0,-7z M190,120l7,0 0,7 -7,0 0,-7z M204,120l7,0 0,7 -7,0 0,-7z M8,127l7,0 0,7 -7,0 0,-7z M22,127l7,0 0,7 -7,0 0,-7z M29,127l7,0 0,7 -7,0 0,-7z M36,127l7,0 0,7 -7,0 0,-7z M64,127l7,0 0,7 -7,0 0,-7z M85,127l7,0 0,7 -7,0 0,-7z M99,127l7,0 0,7 -7,0 0,-7z M106,127l7,0 0,7 -7,0 0,-7z M120,127l7,0 0,7 -7,0 0,-7z M134,127l7,0 0,7 -7,0 0,-7z M141,127l7,0 0,7 -7,0 0,-7z M155,127l7,0 0,7 -7,0 0,-7z M162,127l7,0 0,7 -7,0 0,-7z M169,127l7,0 0,7 -7,0 0,-7z M176,127l7,0 0,7 -7,0 0,-7z M183,127l7,0 0,7 -7,0 0,-7z M190,127l7,0 0,7 -7,0 0,-7z M204,127l7,0 0,7 -7,0 0,-7z M8,134l7,0 0,7 -7,0 0,-7z M15,134l7,0 0,7 -7,0 0,-7z M36,134l7,0 0,7 -7,0 0,-7z M50,134l7,0 0,7 -7,0 0,-7z M92,134l7,0 0,7 -7,0 0,-7z M99,134l7,0 0,7 -7,0 0,-7z M106,134l7,0 0,7 -7,0 0,-7z M120,134l7,0 0,7 -7,0 0,-7z M134,134l7,0 0,7 -7,0 0,-7z M141,134l7,0 0,7 -7,0 0,-7z M148,134l7,0 0,7 -7,0 0,-7z M176,134l7,0 0,7 -7,0 0,-7z M183,134l7,0 0,7 -7,0 0,-7z M204,134l7,0 0,7 -7,0 0,-7z M8,141l7,0 0,7 -7,0 0,-7z M22,141l7,0 0,7 -7,0 0,-7z M29,141l7,0 0,7 -7,0 0,-7z M36,141l7,0 0,7 -7,0 0,-7z M71,141l7,0 0,7 -7,0 0,-7z M85,141l7,0 0,7 -7,0 0,-7z M99,141l7,0 0,7 -7,0 0,-7z M106,141l7,0 0,7 -7,0 0,-7z M113,141l7,0 0,7 -7,0 0,-7z M120,141l7,0 0,7 -7,0 0,-7z M134,141l7,0 0,7 -7,0 0,-7z M141,141l7,0 0,7 -7,0 0,-7z M155,141l7,0 0,7 -7,0 0,-7z M162,141l7,0 0,7 -7,0 0,-7z M183,141l7,0 0,7 -7,0 0,-7z M197,141l7,0 0,7 -7,0 0,-7z M8,148l7,0 0,7 -7,0 0,-7z M29,148l7,0 0,7 -7,0 0,-7z M36,148l7,0 0,7 -7,0 0,-7z M43,148l7,0 0,7 -7,0 0,-7z M50,148l7,0 0,7 -7,0 0,-7z M57,148l7,0 0,7 -7,0 0,-7z M64,148l7,0 0,7 -7,0 0,-7z M78,148l7,0 0,7 -7,0 0,-7z M85,148l7,0 0,7 -7,0 0,-7z M99,148l7,0 0,7 -7,0 0,-7z M120,148l7,0 0,7 -7,0 0,-7z M127,148l7,0 0,7 -7,0 0,-7z M148,148l7,0 0,7 -7,0 0,-7z M155,148l7,0 0,7 -7,0 0,-7z M162,148l7,0 0,7 -7,0 0,-7z M169,148l7,0 0,7 -7,0 0,-7z M176,148l7,0 0,7 -7,0 0,-7z M190,148l7,0 0,7 -7,0 0,-7z M204,148l7,0 0,7 -7,0 0,-7z M64,155l7,0 0,7 -7,0 0,-7z M71,155l7,0 0,7 -7,0 0,-7z M99,155l7,0 0,7 -7,0 0,-7z M106,155l7,0 0,7 -7,0 0,-7z M113,155l7,0 0,7 -7,0 0,-7z M127,155l7,0 0,7 -7,0 0,-7z M134,155l7,0 0,7 -7,0 0,-7z M148,155l7,0 0,7 -7,0 0,-7z M176,155l7,0 0,7 -7,0 0,-7z M183,155l7,0 0,7 -7,0 0,-7z M190,155l7,0 0,7 -7,0 0,-7z M8,162l7,0 0,7 -7,0 0,-7z M15,162l7,0 0,7 -7,0 0,-7z M22,162l7,0 0,7 -7,0 0,-7z M29,162l7,0 0,7 -7,0 0,-7z M36,162l7,0 0,7 -7,0 0,-7z M43,162l7,0 0,7 -7,0 0,-7z M50,162l7,0 0,7 -7,0 0,-7z M64,162l7,0 0,7 -7,0 0,-7z M78,162l7,0 0,7 -7,0 0,-7z M85,162l7,0 0,7 -7,0 0,-7z M92,162l7,0 0,7 -7,0 0,-7z M99,162l7,0 0,7 -7,0 0,-7z M113,162l7,0 0,7 -7,0 0,-7z M120,162l7,0 0,7 -7,0 0,-7z M127,162l7,0 0,7 -7,0 0,-7z M141,162l7,0 0,7 -7,0 0,-7z M148,162l7,0 0,7 -7,0 0,-7z M162,162l7,0 0,7 -7,0 0,-7z M176,162l7,0 0,7 -7,0 0,-7z M8,169l7,0 0,7 -7,0 0,-7z M50,169l7,0 0,7 -7,0 0,-7z M71,169l7,0 0,7 -7,0 0,-7z M92,169l7,0 0,7 -7,0 0,-7z M99,169l7,0 0,7 -7,0 0,-7z M106,169l7,0 0,7 -7,0 0,-7z M120,169l7,0 0,7 -7,0 0,-7z M127,169l7,0 0,7 -7,0 0,-7z M134,169l7,0 0,7 -7,0 0,-7z M141,169l7,0 0,7 -7,0 0,-7z M148,169l7,0 0,7 -7,0 0,-7z M176,169l7,0 0,7 -7,0 0,-7z M183,169l7,0 0,7 -7,0 0,-7z M204,169l7,0 0,7 -7,0 0,-7z M8,176l7,0 0,7 -7,0 0,-7z M22,176l7,0 0,7 -7,0 0,-7z M29,176l7,0 0,7 -7,0 0,-7z M36,176l7,0 0,7 -7,0 0,-7z M50,176l7,0 0,7 -7,0 0,-7z M99,176l7,0 0,7 -7,0 0,-7z M106,176l7,0 0,7 -7,0 0,-7z M113,176l7,0 0,7 -7,0 0,-7z M127,176l7,0 0,7 -7,0 0,-7z M141,176l7,0 0,7 -7,0 0,-7z M148,176l7,0 0,7 -7,0 0,-7z M155,176l7,0 0,7 -7,0 0,-7z M162,176l7,0 0,7 -7,0 0,-7z M169,176l7,0 0,7 -7,0 0,-7z M176,176l7,0 0,7 -7,0 0,-7z M204,176l7,0 0,7 -7,0 0,-7z M8,183l7,0 0,7 -7,0 0,-7z M22,183l7,0 0,7 -7,0 0,-7z M29,183l7,0 0,7 -7,0 0,-7z M36,183l7,0 0,7 -7,0 0,-7z M50,183l7,0 0,7 -7,0 0,-7z M71,183l7,0 0,7 -7,0 0,-7z M92,183l7,0 0,7 -7,0 0,-7z M127,183l7,0 0,7 -7,0 0,-7z M134,183l7,0 0,7 -7,0 0,-7z M141,183l7,0 0,7 -7,0 0,-7z M148,183l7,0 0,7 -7,0 0,-7z M169,183l7,0 0,7 -7,0 0,-7z M183,183l7,0 0,7 -7,0 0,-7z M197,183l7,0 0,7 -7,0 0,-7z M8,190l7,0 0,7 -7,0 0,-7z M22,190l7,0 0,7 -7,0 0,-7z M29,190l7,0 0,7 -7,0 0,-7z M36,190l7,0 0,7 -7,0 0,-7z M50,190l7,0 0,7 -7,0 0,-7z M78,190l7,0 0,7 -7,0 0,-7z M85,190l7,0 0,7 -7,0 0,-7z M92,190l7,0 0,7 -7,0 0,-7z M99,190l7,0 0,7 -7,0 0,-7z M106,190l7,0 0,7 -7,0 0,-7z M113,190l7,0 0,7 -7,0 0,-7z M120,190l7,0 0,7 -7,0 0,-7z M141,190l7,0 0,7 -7,0 0,-7z M148,190l7,0 0,7 -7,0 0,-7z M155,190l7,0 0,7 -7,0 0,-7z M162,190l7,0 0,7 -7,0 0,-7z M169,190l7,0 0,7 -7,0 0,-7z M176,190l7,0 0,7 -7,0 0,-7z M183,190l7,0 0,7 -7,0 0,-7z M190,190l7,0 0,7 -7,0 0,-7z M197,190l7,0 0,7 -7,0 0,-7z M8,197l7,0 0,7 -7,0 0,-7z M50,197l7,0 0,7 -7,0 0,-7z M64,197l7,0 0,7 -7,0 0,-7z M85,197l7,0 0,7 -7,0 0,-7z M106,197l7,0 0,7 -7,0 0,-7z M120,197l7,0 0,7 -7,0 0,-7z M134,197l7,0 0,7 -7,0 0,-7z M155,197l7,0 0,7 -7,0 0,-7z M162,197l7,0 0,7 -7,0 0,-7z M176,197l7,0 0,7 -7,0 0,-7z M183,197l7,0 0,7 -7,0 0,-7z M190,197l7,0 0,7 -7,0 0,-7z M204,197l7,0 0,7 -7,0 0,-7z M8,204l7,0 0,7 -7,0 0,-7z M15,204l7,0 0,7 -7,0 0,-7z M22,204l7,0 0,7 -7,0 0,-7z M29,204l7,0 0,7 -7,0 0,-7z M36,204l7,0 0,7 -7,0 0,-7z M43,204l7,0 0,7 -7,0 0,-7z M50,204l7,0 0,7 -7,0 0,-7z M78,204l7,0 0,7 -7,0 0,-7z M85,204l7,0 0,7 -7,0 0,-7z M113,204l7,0 0,7 -7,0 0,-7z M127,204l7,0 0,7 -7,0 0,-7z M141,204l7,0 0,7 -7,0 0,-7z M176,204l7,0 0,7 -7,0 0,-7z M190,204l7,0 0,7 -7,0 0,-7z " stroke="transparent" fill="#0c0c0d"/></svg>